<svg width="309" height="309" viewBox="0 0 309 309" fill="none" xmlns="http://www.w3.org/2000/svg">
<g filter="url(#filter0_i_176_64)">
<rect width="309" height="309" rx="100" fill="#00FFA3" fill-opacity="0.2"/>
</g>
<rect x="1" y="1" width="307" height="307" rx="99" stroke="#00FFA3" stroke-width="2"/>
<path d="M225 208.251C225 227.857 193.212 243.751 154 243.751C114.788 243.751 83 227.857 83 208.251V172.52C87.4571 177.993 93.7827 182.539 100.819 186.056C114.773 193.034 133.585 197.157 154 197.157C174.415 197.157 193.228 193.034 207.182 186.056C214.218 182.539 220.543 177.993 225 172.52V208.251Z" fill="#00FFA3"/>
<path d="M154 143.905C174.415 143.905 193.228 139.782 207.182 132.805C214.218 129.287 220.543 124.741 225 119.268V154.999C225 159.437 209.152 169.12 201.227 174.148C189.485 180.019 172.797 183.843 154 183.843C135.203 183.843 118.515 180.019 106.772 174.148C96.3125 168.918 83 159.437 83 154.999V119.268C87.4571 124.741 93.7827 129.287 100.819 132.805C114.773 139.782 133.585 143.905 154 143.905Z" fill="#00FFA3"/>
<path d="M201.226 120.899C189.484 126.77 172.796 130.594 153.999 130.594C135.202 130.594 118.514 126.77 106.771 120.899C102.203 119.109 91.9304 113.42 84.7872 104.229C83.5717 102.665 83.05 100.672 83.3528 98.7146C83.5565 97.3985 83.8402 96.0429 84.2039 95.2026C90.3487 78.7242 119.26 66.25 153.999 66.25C188.737 66.25 217.649 78.7242 223.794 95.2026C224.158 96.0429 224.442 97.3985 224.645 98.7146C224.947 100.672 224.426 102.665 223.211 104.229C216.067 113.42 205.795 119.109 201.226 120.899Z" fill="#00FFA3"/>
<defs>
<filter id="filter0_i_176_64" x="0" y="0" width="309" height="309" filterUnits="userSpaceOnUse" color-interpolation-filters="sRGB">
<feFlood flood-opacity="0" result="BackgroundImageFix"/>
<feBlend mode="normal" in="SourceGraphic" in2="BackgroundImageFix" result="shape"/>
<feColorMatrix in="SourceAlpha" type="matrix" values="0 0 0 0 0 0 0 0 0 0 0 0 0 0 0 0 0 0 127 0" result="hardAlpha"/>
<feMorphology radius="20" operator="erode" in="SourceAlpha" result="effect1_innerShadow_176_64"/>
<feOffset/>
<feGaussianBlur stdDeviation="10"/>
<feComposite in2="hardAlpha" operator="arithmetic" k2="-1" k3="1"/>
<feColorMatrix type="matrix" values="0 0 0 0 0 0 0 0 0 1 0 0 0 0 0.64 0 0 0 0.5 0"/>
<feBlend mode="normal" in2="shape" result="effect1_innerShadow_176_64"/>
</filter>
</defs>
</svg>
