<svg width="150" height="40" viewBox="0 0 228 54" fill="none" xmlns="http://www.w3.org/2000/svg">
<path fill-rule="evenodd" clip-rule="evenodd" d="M13.15 36.5001C10.8167 36.5001 8.7 35.9501 6.8 34.8501C4.93333 33.7501 3.45 32.2667 2.35 30.4001C1.28333 28.5001 0.75 26.4001 0.75 24.1001C0.75 21.7667 1.28333 19.6667 2.35 17.8001C3.45 15.9334 4.93333 14.4667 6.8 13.4001C8.7 12.3001 10.8167 11.7501 13.15 11.7501C14.9833 11.7501 16.6833 12.1001 18.25 12.8001C19.8167 13.4667 21.1667 14.4501 22.3 15.7501L19.3 18.7501C18.5667 17.8834 17.6667 17.2334 16.6 16.8001C15.5667 16.3334 14.4167 16.1001 13.15 16.1001C11.65 16.1001 10.3167 16.4501 9.15 17.1501C7.98333 17.8167 7.06667 18.7501 6.4 19.9501C5.73333 21.1501 5.4 22.5334 5.4 24.1001C5.4 25.6667 5.73333 27.0501 6.4 28.2501C7.06667 29.4501 7.98333 30.4001 9.15 31.1001C10.3167 31.8001 11.65 32.1501 13.15 32.1501C14.4167 32.1501 15.5667 31.9334 16.6 31.5001C17.6667 31.0334 18.5833 30.3667 19.35 29.5001L22.3 32.5001C21.2 33.7667 19.85 34.7501 18.25 35.4501C16.6833 36.1501 14.9833 36.5001 13.15 36.5001ZM37.1246 36.5001C34.7913 36.5001 32.6913 35.9501 30.8246 34.8501C28.9579 33.7501 27.4746 32.2667 26.3746 30.4001C25.2746 28.5001 24.7246 26.3834 24.7246 24.0501C24.7246 21.7501 25.2746 19.6834 26.3746 17.8501C27.4746 15.9834 28.9579 14.5001 30.8246 13.4001C32.6913 12.3001 34.7913 11.7501 37.1246 11.7501C39.4246 11.7501 41.5079 12.3001 43.3746 13.4001C45.2746 14.4667 46.7746 15.9334 47.8746 17.8001C48.9746 19.6667 49.5246 21.7501 49.5246 24.0501C49.5246 26.3834 48.9746 28.5001 47.8746 30.4001C46.7746 32.2667 45.2746 33.7501 43.3746 34.8501C41.5079 35.9501 39.4246 36.5001 37.1246 36.5001ZM37.1246 32.1501C38.6246 32.1501 39.9579 31.8001 41.1246 31.1001C42.2913 30.4001 43.2079 29.4501 43.8746 28.2501C44.5413 27.0167 44.8746 25.6167 44.8746 24.0501C44.8746 22.5167 44.5246 21.1501 43.8246 19.9501C43.1579 18.7501 42.2413 17.8167 41.0746 17.1501C39.9413 16.4501 38.6246 16.1001 37.1246 16.1001C35.6246 16.1001 34.2913 16.4501 33.1246 17.1501C31.9579 17.8167 31.0413 18.7501 30.3746 19.9501C29.7079 21.1501 29.3746 22.5167 29.3746 24.0501C29.3746 25.6167 29.7079 27.0167 30.3746 28.2501C31.0413 29.4501 31.9579 30.4001 33.1246 31.1001C34.2913 31.8001 35.6246 32.1501 37.1246 32.1501ZM64.6449 36.5001C62.4449 36.5001 60.4783 35.9667 58.7449 34.9001C57.0116 33.8001 55.6283 32.3167 54.5949 30.4501C53.5949 28.5834 53.0949 26.4834 53.0949 24.1501C53.0949 21.8167 53.5949 19.7167 54.5949 17.8501C55.6283 15.9834 57.0116 14.5001 58.7449 13.4001C60.4783 12.3001 62.4449 11.7501 64.6449 11.7501C66.4116 11.7501 68.0116 12.1334 69.4449 12.9001C70.7187 13.5517 71.7687 14.4404 72.5949 15.5659V0.300049H77.1449V36.0001H72.5949V32.7525C71.7765 33.8499 70.7431 34.7324 69.4949 35.4001C68.0616 36.1334 66.4449 36.5001 64.6449 36.5001ZM65.3949 32.2501C66.8949 32.2501 68.1949 31.9001 69.2949 31.2001C70.4282 30.5001 71.3116 29.5501 71.9449 28.3501C72.5782 27.1167 72.8949 25.7167 72.8949 24.1501C72.8949 22.5167 72.5616 21.1001 71.8949 19.9001C71.2616 18.7001 70.3783 17.7501 69.2449 17.0501C68.1449 16.3501 66.8449 16.0001 65.3449 16.0001C63.8449 16.0001 62.5283 16.3501 61.3949 17.0501C60.2616 17.7501 59.3616 18.7167 58.6949 19.9501C58.0616 21.1501 57.7449 22.5334 57.7449 24.1001C57.7449 25.7001 58.0616 27.1167 58.6949 28.3501C59.3616 29.5501 60.2616 30.5001 61.3949 31.2001C62.5616 31.9001 63.8949 32.2501 65.3949 32.2501ZM94.6965 36.5001C92.3298 36.5001 90.1965 35.9667 88.2965 34.9001C86.3965 33.8001 84.8965 32.3167 83.7965 30.4501C82.6965 28.5834 82.1465 26.4667 82.1465 24.1001C82.1465 21.7667 82.6798 19.6667 83.7465 17.8001C84.8465 15.9334 86.3131 14.4667 88.1465 13.4001C90.0131 12.3001 92.0965 11.7501 94.3965 11.7501C96.5965 11.7501 98.5298 12.2501 100.196 13.2501C101.896 14.2501 103.213 15.6334 104.146 17.4001C105.113 19.1667 105.596 21.1667 105.596 23.4001C105.596 23.7334 105.58 24.1001 105.546 24.5001C105.513 24.8667 105.446 25.3001 105.346 25.8001H86.7471C86.9054 26.7249 87.1885 27.5749 87.5965 28.3501C88.2631 29.5834 89.2131 30.5501 90.4465 31.2501C91.6798 31.9167 93.0965 32.2501 94.6965 32.2501C96.0298 32.2501 97.2465 32.0167 98.3465 31.5501C99.4798 31.0834 100.446 30.3834 101.246 29.4501L104.146 32.4001C103.013 33.7334 101.613 34.7501 99.9465 35.4501C98.3131 36.1501 96.5631 36.5001 94.6965 36.5001ZM87.5465 19.7001C87.1729 20.408 86.9094 21.1913 86.7562 22.0501H101.211C101.088 21.0671 100.833 20.2004 100.446 19.4501C99.8798 18.3167 99.0798 17.4501 98.0465 16.8501C97.0131 16.2167 95.7631 15.9001 94.2965 15.9001C92.7631 15.9001 91.4131 16.2334 90.2465 16.9001C89.0798 17.5667 88.1798 18.5001 87.5465 19.7001ZM110.553 36.0001V12.2501H115.053V36.0001H110.553ZM112.803 7.50005C111.97 7.50005 111.286 7.23338 110.753 6.70005C110.22 6.13338 109.953 5.43338 109.953 4.60005C109.953 3.80005 110.22 3.13338 110.753 2.60005C111.286 2.03338 111.97 1.75005 112.803 1.75005C113.636 1.75005 114.32 2.03338 114.853 2.60005C115.386 3.13338 115.653 3.80005 115.653 4.60005C115.653 5.43338 115.386 6.13338 114.853 6.70005C114.32 7.23338 113.636 7.50005 112.803 7.50005ZM125.435 36.0001C124.268 35.6334 123.185 35.1334 122.185 34.5001C121.185 33.8334 120.318 33.0501 119.585 32.1501L122.485 29.2501C123.351 30.3167 124.351 31.1167 125.485 31.6501C126.618 32.1501 127.885 32.4001 129.285 32.4001C130.685 32.4001 131.768 32.1667 132.535 31.7001C133.301 31.2001 133.685 30.5167 133.685 29.6501C133.685 28.7834 133.368 28.1167 132.735 27.6501C132.135 27.1501 131.351 26.7501 130.385 26.4501C129.418 26.1167 128.385 25.8001 127.285 25.5001C126.218 25.1667 125.201 24.7501 124.235 24.2501C123.268 23.7501 122.468 23.0667 121.835 22.2001C121.235 21.3334 120.935 20.1834 120.935 18.7501C120.935 17.3167 121.285 16.0834 121.985 15.0501C122.685 13.9834 123.651 13.1667 124.885 12.6001C126.151 12.0334 127.668 11.7501 129.435 11.7501C131.301 11.7501 132.951 12.0834 134.385 12.7501C135.851 13.3834 137.051 14.3501 137.985 15.6501L135.085 18.5501C134.418 17.6834 133.585 17.0167 132.585 16.5501C131.618 16.0834 130.518 15.8501 129.285 15.8501C127.985 15.8501 126.985 16.0834 126.285 16.5501C125.618 16.9834 125.285 17.6001 125.285 18.4001C125.285 19.2001 125.585 19.8167 126.185 20.2501C126.785 20.6834 127.568 21.0501 128.535 21.3501C129.535 21.6501 130.568 21.9667 131.635 22.3001C132.701 22.6001 133.718 23.0167 134.685 23.5501C135.651 24.0834 136.435 24.8001 137.035 25.7001C137.668 26.6001 137.985 27.7834 137.985 29.2501C137.985 31.4834 137.185 33.2501 135.585 34.5501C134.018 35.8501 131.901 36.5001 129.235 36.5001C127.901 36.5001 126.635 36.3334 125.435 36.0001ZM158.223 36.0001L147.523 24.2879V36.0001H143.023V0.300049H147.523V23.4282L158.123 12.2501H163.573L152.646 23.6675L164.023 36.0001H158.223ZM177.408 36.5001C175.074 36.5001 172.974 35.9501 171.108 34.8501C169.241 33.7501 167.758 32.2667 166.658 30.4001C165.558 28.5001 165.008 26.3834 165.008 24.0501C165.008 21.7501 165.558 19.6834 166.658 17.8501C167.758 15.9834 169.241 14.5001 171.108 13.4001C172.974 12.3001 175.074 11.7501 177.408 11.7501C179.708 11.7501 181.791 12.3001 183.658 13.4001C185.558 14.4667 187.058 15.9334 188.158 17.8001C188.921 19.0957 189.42 20.4957 189.653 22.0001H193.483C193.717 20.5045 194.215 19.1212 194.978 17.8501C196.078 15.9834 197.561 14.5001 199.428 13.4001C201.295 12.3001 203.395 11.7501 205.728 11.7501C208.028 11.7501 210.111 12.3001 211.978 13.4001C213.878 14.4667 215.378 15.9334 216.478 17.8001C217.578 19.6667 218.128 21.7501 218.128 24.0501C218.128 26.3834 217.578 28.5001 216.478 30.4001C215.378 32.2667 213.878 33.7501 211.978 34.8501C210.111 35.9501 208.028 36.5001 205.728 36.5001C203.395 36.5001 201.295 35.9501 199.428 34.8501C197.561 33.7501 196.078 32.2667 194.978 30.4001C194.193 29.0438 193.688 27.5771 193.463 26.0001H189.673C189.448 27.5771 188.943 29.0438 188.158 30.4001C187.058 32.2667 185.558 33.7501 183.658 34.8501C181.791 35.9501 179.708 36.5001 177.408 36.5001ZM177.408 32.1501C178.908 32.1501 180.241 31.8001 181.408 31.1001C182.574 30.4001 183.491 29.4501 184.158 28.2501C184.824 27.0167 185.158 25.6167 185.158 24.0501C185.158 22.5167 184.808 21.1501 184.108 19.9501C183.441 18.7501 182.524 17.8167 181.358 17.1501C180.224 16.4501 178.908 16.1001 177.408 16.1001C175.908 16.1001 174.574 16.4501 173.408 17.1501C172.241 17.8167 171.324 18.7501 170.658 19.9501C169.991 21.1501 169.658 22.5167 169.658 24.0501C169.658 25.6167 169.991 27.0167 170.658 28.2501C171.324 29.4501 172.241 30.4001 173.408 31.1001C174.574 31.8001 175.908 32.1501 177.408 32.1501ZM205.728 32.1501C207.228 32.1501 208.561 31.8001 209.728 31.1001C210.895 30.4001 211.811 29.4501 212.478 28.2501C213.145 27.0167 213.478 25.6167 213.478 24.0501C213.478 22.5167 213.128 21.1501 212.428 19.9501C211.761 18.7501 210.845 17.8167 209.678 17.1501C208.545 16.4501 207.228 16.1001 205.728 16.1001C204.228 16.1001 202.895 16.4501 201.728 17.1501C200.561 17.8167 199.645 18.7501 198.978 19.9501C198.311 21.1501 197.978 22.5167 197.978 24.0501C197.978 25.6167 198.311 27.0167 198.978 28.2501C199.645 29.4501 200.561 30.4001 201.728 31.1001C202.895 31.8001 204.228 32.1501 205.728 32.1501ZM223.198 36.0001V0.300049H227.698V36.0001H223.198ZM196.68 53.381C192.526 54.4995 188.109 54.0933 184.228 52.2359L185.938 48.664C188.965 50.1128 192.41 50.4296 195.65 49.5572C198.891 48.6847 201.711 46.6806 203.601 43.9079L206.873 46.1383C204.45 49.6931 200.834 52.2624 196.68 53.381Z" fill="white"/>
</svg>
