<svg width="309" height="309" viewBox="0 0 309 309" fill="none" xmlns="http://www.w3.org/2000/svg">
<g filter="url(#filter0_i_174_52)">
<rect width="309" height="309" rx="100" fill="#D19600" fill-opacity="0.2"/>
</g>
<rect x="1" y="1" width="307" height="307" rx="99" stroke="#D19600" stroke-width="2"/>
<mask id="path-3-inside-1_174_52" fill="white">
<path d="M180.707 107.009C166.541 107.269 151.181 113.759 138.951 125.997C117.22 147.73 123.502 189.266 130.882 196.646C136.852 202.609 179.795 210.316 201.533 188.576C203.047 187.051 204.492 185.46 205.865 183.807C206.183 181.641 207.385 178.911 209.491 175.603C208.239 176.24 206.895 176.68 205.509 176.909C204.441 178.874 202.764 180.988 200.495 183.25C197.869 185.735 195.993 187.36 194.858 188.116C193.913 188.805 192.785 189.197 191.617 189.243C189.021 189.243 187.805 186.959 187.953 182.39C186.322 184.734 184.801 186.462 183.414 187.582C182.222 188.618 180.706 189.206 179.127 189.243C177.689 189.243 176.457 188.576 175.449 187.219C174.644 186.116 174.15 184.817 174.017 183.458C172.396 185.103 170.589 186.555 168.633 187.782C166.971 188.761 165.147 189.243 163.144 189.243C160.919 189.243 159.117 188.531 157.752 187.107C156.736 186.036 156.071 184.68 155.846 183.221V183.25C153.621 185.298 151.663 186.811 149.987 187.782C148.541 188.688 146.879 189.193 145.174 189.243C144.356 189.265 143.546 189.091 142.809 188.736C142.073 188.381 141.432 187.856 140.939 187.204C139.863 185.846 139.322 184.014 139.322 181.722C139.322 178.281 140.071 174.157 141.562 169.336C143.053 164.515 144.862 160.064 146.998 156.007L153.243 153.693C153.386 153.639 153.536 153.607 153.688 153.596C154.155 153.596 154.548 153.945 154.852 154.635C155.149 155.34 155.305 156.274 155.305 157.453C155.305 160.799 154.534 164.04 152.991 167.17C151.456 170.3 149.045 173.645 145.767 177.198C145.634 178.904 145.567 180.076 145.567 180.714C145.567 182.145 145.834 183.273 146.353 184.111C146.88 184.949 147.577 185.364 148.444 185.364C149.462 185.324 150.446 184.989 151.278 184.4C152.257 183.777 153.747 182.472 155.742 180.521C155.95 177.42 157.129 174.602 159.317 172.05C161.72 169.232 164.398 167.83 167.327 167.83C168.855 167.83 170.072 168.231 170.991 169.017C171.44 169.395 171.797 169.869 172.036 170.405C172.274 170.941 172.389 171.524 172.371 172.11C172.371 175.507 168.766 178.259 161.55 180.373C162.202 183.562 163.923 185.164 166.69 185.164C167.78 185.162 168.85 184.862 169.782 184.296C170.739 183.732 172.163 182.494 174.047 180.61C174.284 178.741 174.922 176.938 175.968 175.21C177.318 172.985 179.053 171.175 181.167 169.796C183.281 168.423 185.15 167.734 186.774 167.734C188.821 167.734 190.26 168.676 191.076 170.56L196.097 167.786H197.476L195.311 174.988C194.198 178.607 193.634 181.092 193.634 182.434C193.634 183.844 194.131 184.548 195.133 184.548C195.77 184.548 196.475 184.215 197.246 183.532C198.018 182.85 199.101 181.811 200.487 180.417V180.424C201.548 179.275 202.52 178.051 203.395 176.76C201.986 176.137 201.281 175.203 201.281 173.979C201.281 172.718 201.711 171.368 202.572 169.937C203.432 168.498 204.611 167.786 206.124 167.786C207.4 167.786 208.038 168.438 208.038 169.751C208.038 170.782 207.667 172.258 206.933 174.172C209.654 173.875 212.028 171.798 214.06 167.926L215.751 167.852C223.605 149.769 221.892 130.21 209.595 117.92C202.038 110.354 191.736 106.794 180.707 107.009ZM215.751 167.852C213.229 173.612 209.9 178.984 205.865 183.807C205.81 184.168 205.781 184.532 205.776 184.897C205.776 186.143 206.124 187.189 206.814 188.034C207.496 188.873 208.342 189.295 209.336 189.295C211.531 189.295 214.631 187.337 218.636 183.458C218.629 183.755 218.614 184.051 218.614 184.356C218.614 185.438 218.703 187.085 218.881 189.295L224.317 188.02C224.317 186.536 224.34 185.372 224.391 184.504C224.466 183.339 224.636 182.056 224.881 180.669C225.029 179.853 225.4 179.067 226.008 178.333L227.388 176.731C228.271 175.701 229.206 174.718 230.191 173.786C230.651 173.378 231.052 173.052 231.393 172.822C231.663 172.632 231.977 172.514 232.305 172.481C232.713 172.481 232.921 172.74 232.921 173.267C232.921 173.786 232.535 175.017 231.764 176.953C230.325 180.558 229.598 183.243 229.598 184.993C229.598 186.291 229.939 187.322 230.607 188.094C230.935 188.472 231.344 188.772 231.803 188.971C232.263 189.17 232.761 189.263 233.262 189.243C235.969 189.243 239.217 187.248 243 183.25V180.424C240.323 183.584 238.379 185.171 237.185 185.171C236.377 185.171 235.976 184.674 235.976 183.688C235.976 182.946 236.458 181.344 237.423 178.867C238.832 175.262 239.536 172.666 239.536 171.094C239.567 170.229 239.27 169.384 238.706 168.728C238.449 168.425 238.128 168.183 237.766 168.02C237.404 167.858 237.011 167.777 236.614 167.786C235.39 167.786 233.989 168.357 232.409 169.514C230.829 170.671 228.701 172.748 226.008 175.744C226.401 173.801 227.232 171.131 228.493 167.734L222.493 168.891C221.275 171.454 220.285 174.12 219.534 176.857C219.237 178.014 219.014 179.201 218.851 180.417C217.69 181.583 216.478 182.697 215.217 183.755C214.731 184.133 214.134 184.341 213.519 184.348C213.27 184.358 213.024 184.308 212.799 184.202C212.574 184.096 212.378 183.938 212.228 183.74C211.889 183.26 211.722 182.68 211.753 182.093C211.753 181.352 211.894 180.506 212.169 179.549C212.451 178.585 213.059 176.783 214.016 174.127L216.3 167.83L215.751 167.852ZM88.1096 146.142C81.709 146.024 75.7237 148.093 71.3404 152.476C61.313 162.505 63.4045 180.862 76.0204 193.471C88.6287 206.088 112.733 202.446 117.012 198.159C120.476 194.703 124.948 169.773 112.333 157.164C105.235 150.066 96.3347 146.298 88.1096 146.142ZM179.224 148.798H180.455V150.355H179.216L179.224 148.798ZM182.391 148.798H183.622V155.213L187.034 151.839H188.48L185.78 154.524L188.954 159.597H187.486L184.838 155.332L183.622 156.563V159.604H182.391V148.798ZM189.926 148.798H191.157V150.355H189.926V148.798ZM193.494 149.702H194.725V151.839H196V152.84H194.725V158.158C194.725 158.432 194.769 158.618 194.873 158.714C194.962 158.811 195.147 158.863 195.422 158.863C195.618 158.871 195.813 158.846 196 158.789V159.834C195.668 159.898 195.33 159.932 194.992 159.938C194.595 159.965 194.202 159.852 193.879 159.619C193.749 159.507 193.646 159.367 193.579 159.208C193.512 159.05 193.483 158.878 193.494 158.707V152.847H192.448V151.839H193.494V149.702ZM167.075 151.616C167.676 151.616 168.188 151.705 168.61 151.898C169.033 152.076 169.352 152.35 169.575 152.714C169.797 153.077 169.908 153.5 169.908 153.997H168.603C168.559 153.174 168.047 152.758 167.06 152.758C166.634 152.734 166.209 152.84 165.844 153.062C165.702 153.157 165.586 153.286 165.508 153.438C165.43 153.59 165.392 153.76 165.399 153.93C165.399 154.19 165.51 154.412 165.733 154.583C165.955 154.761 166.326 154.909 166.845 155.028L168.032 155.317C168.645 155.424 169.219 155.693 169.693 156.096C170.042 156.437 170.212 156.897 170.212 157.476C170.222 157.938 170.087 158.392 169.827 158.774C169.545 159.166 169.153 159.466 168.699 159.634C168.166 159.845 167.597 159.949 167.023 159.938C166.015 159.938 165.243 159.716 164.732 159.285C164.22 158.848 163.953 158.18 163.923 157.29H165.228C165.258 157.565 165.303 157.772 165.355 157.913C165.412 158.062 165.498 158.198 165.607 158.314C165.933 158.633 166.437 158.796 167.12 158.796C167.581 158.819 168.038 158.703 168.432 158.462C168.584 158.37 168.71 158.241 168.797 158.086C168.884 157.931 168.93 157.757 168.929 157.58C168.934 157.454 168.911 157.33 168.862 157.215C168.813 157.099 168.74 156.996 168.648 156.912C168.378 156.704 168.063 156.565 167.728 156.504L166.571 156.222C166.17 156.125 165.776 156.001 165.392 155.851C165.127 155.741 164.881 155.588 164.665 155.399C164.475 155.23 164.328 155.019 164.235 154.783C164.149 154.525 164.109 154.254 164.116 153.982C164.116 153.27 164.383 152.692 164.924 152.261C165.545 151.804 166.305 151.576 167.075 151.616ZM174.752 151.616C175.269 151.607 175.781 151.717 176.25 151.935C176.577 152.087 176.87 152.305 177.108 152.575C177.347 152.846 177.527 153.164 177.637 153.507C177.728 153.812 177.785 154.125 177.807 154.442H176.561C176.531 153.969 176.324 153.525 175.983 153.196C175.635 152.891 175.184 152.731 174.722 152.751C174.308 152.742 173.903 152.872 173.572 153.122C173.226 153.398 172.968 153.769 172.831 154.19C172.652 154.725 172.566 155.287 172.578 155.851C172.564 156.392 172.652 156.931 172.838 157.439C172.986 157.837 173.247 158.185 173.587 158.44C173.927 158.681 174.335 158.806 174.752 158.796C175.805 158.796 176.435 158.173 176.65 156.927H177.889C177.852 157.5 177.687 158.057 177.407 158.559C177.154 158.998 176.777 159.354 176.324 159.582C175.826 159.828 175.277 159.95 174.722 159.938C174.079 159.955 173.445 159.785 172.897 159.449C172.37 159.099 171.955 158.605 171.703 158.025C171.408 157.339 171.264 156.598 171.28 155.851C171.28 155.221 171.355 154.642 171.518 154.123C171.661 153.631 171.901 153.172 172.222 152.773C172.519 152.399 172.9 152.102 173.335 151.905C173.78 151.705 174.263 151.611 174.752 151.616ZM179.224 151.839H180.455V159.597H179.216L179.224 151.839ZM189.926 151.839H191.157V159.597H189.926V151.839ZM152.472 156.422C151.878 156.422 150.988 157.936 149.831 160.954C148.682 163.973 147.547 168.201 146.427 173.638C148.511 171.324 150.202 168.728 151.493 165.85C152.791 162.979 153.436 160.509 153.436 158.44C153.457 157.939 153.365 157.44 153.169 156.979C152.983 156.608 152.754 156.422 152.479 156.422H152.472ZM187.048 169.751C185.409 169.751 183.852 171.146 182.383 173.927C180.922 176.716 180.188 179.282 180.188 181.626C180.188 182.516 180.403 183.228 180.841 183.777C181.031 184.036 181.281 184.245 181.568 184.388C181.856 184.531 182.173 184.604 182.495 184.6C184.134 184.6 185.684 183.206 187.13 180.41C188.584 177.613 189.31 175.032 189.31 172.673C189.355 171.907 189.138 171.149 188.695 170.523C188.501 170.273 188.251 170.072 187.965 169.938C187.678 169.804 187.364 169.74 187.048 169.751ZM165.926 169.803C164.843 169.803 163.812 170.619 162.833 172.273C161.846 173.92 161.35 176.056 161.35 178.696C165.547 177.517 167.646 175.344 167.646 172.162C167.646 170.589 167.075 169.803 165.926 169.803Z"/>
</mask>
<path d="M180.707 107.009C166.541 107.269 151.181 113.759 138.951 125.997C117.22 147.73 123.502 189.266 130.882 196.646C136.852 202.609 179.795 210.316 201.533 188.576C203.047 187.051 204.492 185.46 205.865 183.807C206.183 181.641 207.385 178.911 209.491 175.603C208.239 176.24 206.895 176.68 205.509 176.909C204.441 178.874 202.764 180.988 200.495 183.25C197.869 185.735 195.993 187.36 194.858 188.116C193.913 188.805 192.785 189.197 191.617 189.243C189.021 189.243 187.805 186.959 187.953 182.39C186.322 184.734 184.801 186.462 183.414 187.582C182.222 188.618 180.706 189.206 179.127 189.243C177.689 189.243 176.457 188.576 175.449 187.219C174.644 186.116 174.15 184.817 174.017 183.458C172.396 185.103 170.589 186.555 168.633 187.782C166.971 188.761 165.147 189.243 163.144 189.243C160.919 189.243 159.117 188.531 157.752 187.107C156.736 186.036 156.071 184.68 155.846 183.221V183.25C153.621 185.298 151.663 186.811 149.987 187.782C148.541 188.688 146.879 189.193 145.174 189.243C144.356 189.265 143.546 189.091 142.809 188.736C142.073 188.381 141.432 187.856 140.939 187.204C139.863 185.846 139.322 184.014 139.322 181.722C139.322 178.281 140.071 174.157 141.562 169.336C143.053 164.515 144.862 160.064 146.998 156.007L153.243 153.693C153.386 153.639 153.536 153.607 153.688 153.596C154.155 153.596 154.548 153.945 154.852 154.635C155.149 155.34 155.305 156.274 155.305 157.453C155.305 160.799 154.534 164.04 152.991 167.17C151.456 170.3 149.045 173.645 145.767 177.198C145.634 178.904 145.567 180.076 145.567 180.714C145.567 182.145 145.834 183.273 146.353 184.111C146.88 184.949 147.577 185.364 148.444 185.364C149.462 185.324 150.446 184.989 151.278 184.4C152.257 183.777 153.747 182.472 155.742 180.521C155.95 177.42 157.129 174.602 159.317 172.05C161.72 169.232 164.398 167.83 167.327 167.83C168.855 167.83 170.072 168.231 170.991 169.017C171.44 169.395 171.797 169.869 172.036 170.405C172.274 170.941 172.389 171.524 172.371 172.11C172.371 175.507 168.766 178.259 161.55 180.373C162.202 183.562 163.923 185.164 166.69 185.164C167.78 185.162 168.85 184.862 169.782 184.296C170.739 183.732 172.163 182.494 174.047 180.61C174.284 178.741 174.922 176.938 175.968 175.21C177.318 172.985 179.053 171.175 181.167 169.796C183.281 168.423 185.15 167.734 186.774 167.734C188.821 167.734 190.26 168.676 191.076 170.56L196.097 167.786H197.476L195.311 174.988C194.198 178.607 193.634 181.092 193.634 182.434C193.634 183.844 194.131 184.548 195.133 184.548C195.77 184.548 196.475 184.215 197.246 183.532C198.018 182.85 199.101 181.811 200.487 180.417V180.424C201.548 179.275 202.52 178.051 203.395 176.76C201.986 176.137 201.281 175.203 201.281 173.979C201.281 172.718 201.711 171.368 202.572 169.937C203.432 168.498 204.611 167.786 206.124 167.786C207.4 167.786 208.038 168.438 208.038 169.751C208.038 170.782 207.667 172.258 206.933 174.172C209.654 173.875 212.028 171.798 214.06 167.926L215.751 167.852C223.605 149.769 221.892 130.21 209.595 117.92C202.038 110.354 191.736 106.794 180.707 107.009ZM215.751 167.852C213.229 173.612 209.9 178.984 205.865 183.807C205.81 184.168 205.781 184.532 205.776 184.897C205.776 186.143 206.124 187.189 206.814 188.034C207.496 188.873 208.342 189.295 209.336 189.295C211.531 189.295 214.631 187.337 218.636 183.458C218.629 183.755 218.614 184.051 218.614 184.356C218.614 185.438 218.703 187.085 218.881 189.295L224.317 188.02C224.317 186.536 224.34 185.372 224.391 184.504C224.466 183.339 224.636 182.056 224.881 180.669C225.029 179.853 225.4 179.067 226.008 178.333L227.388 176.731C228.271 175.701 229.206 174.718 230.191 173.786C230.651 173.378 231.052 173.052 231.393 172.822C231.663 172.632 231.977 172.514 232.305 172.481C232.713 172.481 232.921 172.74 232.921 173.267C232.921 173.786 232.535 175.017 231.764 176.953C230.325 180.558 229.598 183.243 229.598 184.993C229.598 186.291 229.939 187.322 230.607 188.094C230.935 188.472 231.344 188.772 231.803 188.971C232.263 189.17 232.761 189.263 233.262 189.243C235.969 189.243 239.217 187.248 243 183.25V180.424C240.323 183.584 238.379 185.171 237.185 185.171C236.377 185.171 235.976 184.674 235.976 183.688C235.976 182.946 236.458 181.344 237.423 178.867C238.832 175.262 239.536 172.666 239.536 171.094C239.567 170.229 239.27 169.384 238.706 168.728C238.449 168.425 238.128 168.183 237.766 168.02C237.404 167.858 237.011 167.777 236.614 167.786C235.39 167.786 233.989 168.357 232.409 169.514C230.829 170.671 228.701 172.748 226.008 175.744C226.401 173.801 227.232 171.131 228.493 167.734L222.493 168.891C221.275 171.454 220.285 174.12 219.534 176.857C219.237 178.014 219.014 179.201 218.851 180.417C217.69 181.583 216.478 182.697 215.217 183.755C214.731 184.133 214.134 184.341 213.519 184.348C213.27 184.358 213.024 184.308 212.799 184.202C212.574 184.096 212.378 183.938 212.228 183.74C211.889 183.26 211.722 182.68 211.753 182.093C211.753 181.352 211.894 180.506 212.169 179.549C212.451 178.585 213.059 176.783 214.016 174.127L216.3 167.83L215.751 167.852ZM88.1096 146.142C81.709 146.024 75.7237 148.093 71.3404 152.476C61.313 162.505 63.4045 180.862 76.0204 193.471C88.6287 206.088 112.733 202.446 117.012 198.159C120.476 194.703 124.948 169.773 112.333 157.164C105.235 150.066 96.3347 146.298 88.1096 146.142ZM179.224 148.798H180.455V150.355H179.216L179.224 148.798ZM182.391 148.798H183.622V155.213L187.034 151.839H188.48L185.78 154.524L188.954 159.597H187.486L184.838 155.332L183.622 156.563V159.604H182.391V148.798ZM189.926 148.798H191.157V150.355H189.926V148.798ZM193.494 149.702H194.725V151.839H196V152.84H194.725V158.158C194.725 158.432 194.769 158.618 194.873 158.714C194.962 158.811 195.147 158.863 195.422 158.863C195.618 158.871 195.813 158.846 196 158.789V159.834C195.668 159.898 195.33 159.932 194.992 159.938C194.595 159.965 194.202 159.852 193.879 159.619C193.749 159.507 193.646 159.367 193.579 159.208C193.512 159.05 193.483 158.878 193.494 158.707V152.847H192.448V151.839H193.494V149.702ZM167.075 151.616C167.676 151.616 168.188 151.705 168.61 151.898C169.033 152.076 169.352 152.35 169.575 152.714C169.797 153.077 169.908 153.5 169.908 153.997H168.603C168.559 153.174 168.047 152.758 167.06 152.758C166.634 152.734 166.209 152.84 165.844 153.062C165.702 153.157 165.586 153.286 165.508 153.438C165.43 153.59 165.392 153.76 165.399 153.93C165.399 154.19 165.51 154.412 165.733 154.583C165.955 154.761 166.326 154.909 166.845 155.028L168.032 155.317C168.645 155.424 169.219 155.693 169.693 156.096C170.042 156.437 170.212 156.897 170.212 157.476C170.222 157.938 170.087 158.392 169.827 158.774C169.545 159.166 169.153 159.466 168.699 159.634C168.166 159.845 167.597 159.949 167.023 159.938C166.015 159.938 165.243 159.716 164.732 159.285C164.22 158.848 163.953 158.18 163.923 157.29H165.228C165.258 157.565 165.303 157.772 165.355 157.913C165.412 158.062 165.498 158.198 165.607 158.314C165.933 158.633 166.437 158.796 167.12 158.796C167.581 158.819 168.038 158.703 168.432 158.462C168.584 158.37 168.71 158.241 168.797 158.086C168.884 157.931 168.93 157.757 168.929 157.58C168.934 157.454 168.911 157.33 168.862 157.215C168.813 157.099 168.74 156.996 168.648 156.912C168.378 156.704 168.063 156.565 167.728 156.504L166.571 156.222C166.17 156.125 165.776 156.001 165.392 155.851C165.127 155.741 164.881 155.588 164.665 155.399C164.475 155.23 164.328 155.019 164.235 154.783C164.149 154.525 164.109 154.254 164.116 153.982C164.116 153.27 164.383 152.692 164.924 152.261C165.545 151.804 166.305 151.576 167.075 151.616ZM174.752 151.616C175.269 151.607 175.781 151.717 176.25 151.935C176.577 152.087 176.87 152.305 177.108 152.575C177.347 152.846 177.527 153.164 177.637 153.507C177.728 153.812 177.785 154.125 177.807 154.442H176.561C176.531 153.969 176.324 153.525 175.983 153.196C175.635 152.891 175.184 152.731 174.722 152.751C174.308 152.742 173.903 152.872 173.572 153.122C173.226 153.398 172.968 153.769 172.831 154.19C172.652 154.725 172.566 155.287 172.578 155.851C172.564 156.392 172.652 156.931 172.838 157.439C172.986 157.837 173.247 158.185 173.587 158.44C173.927 158.681 174.335 158.806 174.752 158.796C175.805 158.796 176.435 158.173 176.65 156.927H177.889C177.852 157.5 177.687 158.057 177.407 158.559C177.154 158.998 176.777 159.354 176.324 159.582C175.826 159.828 175.277 159.95 174.722 159.938C174.079 159.955 173.445 159.785 172.897 159.449C172.37 159.099 171.955 158.605 171.703 158.025C171.408 157.339 171.264 156.598 171.28 155.851C171.28 155.221 171.355 154.642 171.518 154.123C171.661 153.631 171.901 153.172 172.222 152.773C172.519 152.399 172.9 152.102 173.335 151.905C173.78 151.705 174.263 151.611 174.752 151.616ZM179.224 151.839H180.455V159.597H179.216L179.224 151.839ZM189.926 151.839H191.157V159.597H189.926V151.839ZM152.472 156.422C151.878 156.422 150.988 157.936 149.831 160.954C148.682 163.973 147.547 168.201 146.427 173.638C148.511 171.324 150.202 168.728 151.493 165.85C152.791 162.979 153.436 160.509 153.436 158.44C153.457 157.939 153.365 157.44 153.169 156.979C152.983 156.608 152.754 156.422 152.479 156.422H152.472ZM187.048 169.751C185.409 169.751 183.852 171.146 182.383 173.927C180.922 176.716 180.188 179.282 180.188 181.626C180.188 182.516 180.403 183.228 180.841 183.777C181.031 184.036 181.281 184.245 181.568 184.388C181.856 184.531 182.173 184.604 182.495 184.6C184.134 184.6 185.684 183.206 187.13 180.41C188.584 177.613 189.31 175.032 189.31 172.673C189.355 171.907 189.138 171.149 188.695 170.523C188.501 170.273 188.251 170.072 187.965 169.938C187.678 169.804 187.364 169.74 187.048 169.751ZM165.926 169.803C164.843 169.803 163.812 170.619 162.833 172.273C161.846 173.92 161.35 176.056 161.35 178.696C165.547 177.517 167.646 175.344 167.646 172.162C167.646 170.589 167.075 169.803 165.926 169.803Z" fill="#FFB800"/>
<path d="M180.707 107.009L180.725 108.009L180.727 108.009L180.707 107.009ZM138.951 125.997L139.658 126.704L139.658 126.704L138.951 125.997ZM130.882 196.646L130.175 197.353L130.175 197.353L130.882 196.646ZM201.533 188.576L202.24 189.283L202.243 189.281L201.533 188.576ZM209.491 175.603L210.335 176.14L212.3 173.054L209.038 174.712L209.491 175.603ZM205.509 176.909L205.346 175.922L204.863 176.001L204.63 176.431L205.509 176.909ZM200.495 183.25L201.182 183.977L201.192 183.968L201.201 183.959L200.495 183.25ZM194.858 188.116L194.303 187.284L194.286 187.296L194.269 187.308L194.858 188.116ZM191.617 189.243V190.243H191.637L191.657 190.243L191.617 189.243ZM187.953 182.39L188.953 182.422L189.062 179.047L187.133 181.819L187.953 182.39ZM183.414 187.582L182.786 186.804L182.772 186.815L182.758 186.827L183.414 187.582ZM179.127 189.243V190.243H179.139L179.151 190.243L179.127 189.243ZM175.449 187.219L174.641 187.808L174.646 187.815L175.449 187.219ZM174.017 183.458L175.013 183.361L174.805 181.234L173.305 182.756L174.017 183.458ZM168.633 187.782L169.14 188.644L169.152 188.637L169.164 188.629L168.633 187.782ZM157.752 187.107L157.027 187.795L157.03 187.799L157.752 187.107ZM155.846 183.221L156.835 183.068L154.846 183.221H155.846ZM155.846 183.25L156.523 183.986L156.846 183.689V183.25H155.846ZM149.987 187.782L149.486 186.917L149.471 186.926L149.456 186.935L149.987 187.782ZM145.174 189.243L145.2 190.243L145.203 190.243L145.174 189.243ZM140.939 187.204L141.737 186.601L141.73 186.592L141.723 186.583L140.939 187.204ZM146.998 156.007L146.651 155.069L146.292 155.202L146.113 155.541L146.998 156.007ZM153.243 153.693L153.591 154.631L153.595 154.629L153.243 153.693ZM153.688 153.596V152.596H153.655L153.621 152.599L153.688 153.596ZM154.852 154.635L155.774 154.247L155.771 154.239L155.768 154.232L154.852 154.635ZM152.991 167.17L152.094 166.728L152.093 166.73L152.991 167.17ZM145.767 177.198L145.032 176.52L144.797 176.774L144.77 177.12L145.767 177.198ZM146.353 184.111L145.503 184.637L145.506 184.643L146.353 184.111ZM148.444 185.364V186.364H148.464L148.484 186.363L148.444 185.364ZM151.278 184.4L150.741 183.556L150.72 183.57L150.7 183.584L151.278 184.4ZM155.742 180.521L156.442 181.236L156.715 180.969L156.74 180.588L155.742 180.521ZM159.317 172.05L160.076 172.701L160.078 172.699L159.317 172.05ZM170.991 169.017L170.341 169.777L170.347 169.781L170.991 169.017ZM172.371 172.11L171.371 172.079L171.371 172.094V172.11H172.371ZM161.55 180.373L161.269 179.413L160.386 179.672L160.57 180.573L161.55 180.373ZM166.69 185.164L166.69 186.164L166.691 186.164L166.69 185.164ZM169.782 184.296L169.275 183.435L169.264 183.441L169.782 184.296ZM174.047 180.61L174.754 181.317L174.996 181.075L175.039 180.736L174.047 180.61ZM175.968 175.21L175.113 174.692L175.112 174.692L175.968 175.21ZM181.167 169.796L180.622 168.957L180.62 168.958L181.167 169.796ZM191.076 170.56L190.158 170.957L190.596 171.967L191.559 171.435L191.076 170.56ZM196.097 167.786V166.786H195.839L195.613 166.91L196.097 167.786ZM197.476 167.786L198.434 168.074L198.821 166.786H197.476V167.786ZM195.311 174.988L196.266 175.281L196.268 175.276L195.311 174.988ZM200.487 180.417H201.487V177.994L199.778 179.712L200.487 180.417ZM200.487 180.424H199.487V182.983L201.222 181.102L200.487 180.424ZM203.395 176.76L204.222 177.322L204.895 176.33L203.799 175.846L203.395 176.76ZM202.572 169.937L203.429 170.452L203.43 170.45L202.572 169.937ZM206.933 174.172L205.999 173.814L205.412 175.343L207.041 175.166L206.933 174.172ZM214.06 167.926L214.016 166.927L213.442 166.953L213.175 167.462L214.06 167.926ZM209.595 117.92L208.888 118.627L208.888 118.627L209.595 117.92ZM205.776 184.897L204.776 184.883V184.897L205.776 184.897ZM206.814 188.034L207.589 187.403L207.589 187.402L206.814 188.034ZM218.636 183.458L219.636 183.483L219.697 181.038L217.94 182.74L218.636 183.458ZM218.881 189.295L217.884 189.376L217.977 190.535L219.109 190.269L218.881 189.295ZM224.317 188.02L224.546 188.993L225.317 188.812V188.02H224.317ZM224.391 184.504L223.394 184.44L223.393 184.444L224.391 184.504ZM224.881 180.669L223.897 180.49L223.896 180.495L224.881 180.669ZM226.008 178.333L225.251 177.68L225.244 177.688L225.238 177.695L226.008 178.333ZM227.388 176.731L228.146 177.383L228.147 177.382L227.388 176.731ZM230.191 173.786L229.528 173.038L229.516 173.049L229.504 173.06L230.191 173.786ZM231.393 172.822L231.952 173.651L231.96 173.645L231.968 173.64L231.393 172.822ZM232.305 172.481L232.305 171.481H232.254L232.203 171.486L232.305 172.481ZM231.764 176.953L232.692 177.324L232.693 177.323L231.764 176.953ZM230.607 188.094L229.851 188.748L229.851 188.749L230.607 188.094ZM233.262 189.243V188.243H233.242L233.222 188.244L233.262 189.243ZM243 183.25L243.726 183.938L244 183.648V183.25H243ZM243 180.424H244V177.697L242.237 179.778L243 180.424ZM237.423 178.867L236.491 178.503L236.491 178.504L237.423 178.867ZM239.536 171.094L238.537 171.058L238.536 171.076V171.094H239.536ZM238.706 168.728L237.943 169.375L237.948 169.38L238.706 168.728ZM236.614 167.786V168.786H236.625L236.635 168.785L236.614 167.786ZM226.008 175.744L225.028 175.546L224.301 179.141L226.752 176.413L226.008 175.744ZM228.493 167.734L229.43 168.082L230.049 166.415L228.304 166.752L228.493 167.734ZM222.493 168.891L222.303 167.909L221.807 168.005L221.59 168.462L222.493 168.891ZM219.534 176.857L218.569 176.592L218.567 176.6L218.565 176.608L219.534 176.857ZM218.851 180.417L219.56 181.123L219.798 180.884L219.842 180.55L218.851 180.417ZM215.217 183.755L215.831 184.544L215.846 184.533L215.86 184.521L215.217 183.755ZM213.519 184.348L213.507 183.348L213.493 183.348L213.478 183.349L213.519 184.348ZM212.228 183.74L211.411 184.317L211.421 184.331L211.432 184.345L212.228 183.74ZM211.753 182.093L212.752 182.147L212.753 182.12V182.093L211.753 182.093ZM212.169 179.549L211.209 179.269L211.208 179.274L212.169 179.549ZM214.016 174.127L213.075 173.786L213.075 173.788L214.016 174.127ZM216.3 167.83L217.24 168.171L217.748 166.771L216.259 166.831L216.3 167.83ZM88.1096 146.142L88.1285 145.142L88.1281 145.142L88.1096 146.142ZM76.0204 193.471L76.7277 192.764L76.7273 192.764L76.0204 193.471ZM117.012 198.159L116.306 197.451L116.305 197.452L117.012 198.159ZM112.333 157.164L111.625 157.871L111.626 157.871L112.333 157.164ZM179.224 148.798V147.798H178.229L178.224 148.793L179.224 148.798ZM180.455 148.798H181.455V147.798H180.455V148.798ZM180.455 150.355V151.355H181.455V150.355H180.455ZM179.216 150.355L178.216 150.35L178.212 151.355H179.216V150.355ZM182.391 148.798V147.798H181.391V148.798H182.391ZM183.622 148.798H184.622V147.798H183.622V148.798ZM183.622 155.213H182.622V157.609L184.325 155.924L183.622 155.213ZM187.034 151.839V150.839H186.623L186.33 151.128L187.034 151.839ZM188.48 151.839L189.185 152.548L190.903 150.839H188.48V151.839ZM185.78 154.524L185.075 153.815L184.509 154.377L184.932 155.054L185.78 154.524ZM188.954 159.597V160.597H190.76L189.802 159.067L188.954 159.597ZM187.486 159.597L186.636 160.124L186.93 160.597H187.486V159.597ZM184.838 155.332L185.688 154.805L185.019 153.727L184.127 154.629L184.838 155.332ZM183.622 156.563L182.91 155.861L182.622 156.153V156.563H183.622ZM183.622 159.604V160.604H184.622V159.604H183.622ZM182.391 159.604H181.391V160.604H182.391V159.604ZM189.926 148.798V147.798H188.926V148.798H189.926ZM191.157 148.798H192.157V147.798H191.157V148.798ZM191.157 150.355V151.355H192.157V150.355H191.157ZM189.926 150.355H188.926V151.355H189.926V150.355ZM193.494 149.702V148.702H192.494V149.702H193.494ZM194.725 149.702H195.725V148.702H194.725V149.702ZM194.725 151.839H193.725V152.839H194.725V151.839ZM196 151.839H197V150.839H196V151.839ZM196 152.84V153.84H197V152.84H196ZM194.725 152.84V151.84H193.725V152.84H194.725ZM194.873 158.714L195.608 158.036L195.582 158.008L195.553 157.982L194.873 158.714ZM195.422 158.863L195.466 157.864L195.444 157.863H195.422V158.863ZM196 158.789H197V157.433L195.705 157.833L196 158.789ZM196 159.834L196.187 160.817L197 160.662V159.834H196ZM194.992 159.938L194.974 158.938L194.95 158.939L194.925 158.94L194.992 159.938ZM193.879 159.619L193.228 160.378L193.26 160.405L193.294 160.43L193.879 159.619ZM193.494 158.707L194.492 158.768L194.494 158.738V158.707H193.494ZM193.494 152.847H194.494V151.847H193.494V152.847ZM192.448 152.847H191.448V153.847H192.448V152.847ZM192.448 151.839V150.839H191.448V151.839H192.448ZM193.494 151.839V152.839H194.494V151.839H193.494ZM167.075 151.616L167.024 152.615L167.049 152.616H167.075V151.616ZM168.61 151.898L168.195 152.808L168.209 152.814L168.222 152.82L168.61 151.898ZM169.908 153.997V154.997H170.908V153.997H169.908ZM168.603 153.997L167.605 154.051L167.656 154.997H168.603V153.997ZM167.06 152.758L167.004 153.757L167.032 153.758H167.06V152.758ZM165.844 153.062L165.325 152.208L165.308 152.218L165.293 152.228L165.844 153.062ZM165.399 153.93L166.399 153.93V153.911L166.398 153.891L165.399 153.93ZM165.733 154.583L166.358 153.802L166.349 153.796L166.341 153.789L165.733 154.583ZM166.845 155.028L167.082 154.056L167.075 154.055L167.068 154.053L166.845 155.028ZM168.032 155.317L167.795 156.289L167.828 156.297L167.861 156.303L168.032 155.317ZM169.693 156.096L170.393 155.381L170.368 155.357L170.341 155.334L169.693 156.096ZM170.212 157.476H169.212V157.486L169.213 157.496L170.212 157.476ZM169.827 158.774L170.639 159.357L170.646 159.347L170.653 159.337L169.827 158.774ZM168.699 159.634L168.352 158.696L168.341 158.7L168.331 158.704L168.699 159.634ZM167.023 159.938L167.041 158.938L167.032 158.938H167.023V159.938ZM164.732 159.285L164.082 160.046L164.088 160.051L164.732 159.285ZM163.923 157.29V156.29H162.889L162.924 157.324L163.923 157.29ZM165.228 157.29L166.223 157.183L166.126 156.29H165.228V157.29ZM165.355 157.913L164.416 158.259L164.419 158.266L164.422 158.273L165.355 157.913ZM165.607 158.314L164.879 158.999L164.893 159.014L164.908 159.029L165.607 158.314ZM167.12 158.796L167.17 157.797L167.145 157.796H167.12V158.796ZM168.432 158.462L167.914 157.607L167.911 157.609L168.432 158.462ZM168.929 157.58L167.93 157.544L167.929 157.562L167.929 157.58L168.929 157.58ZM168.648 156.912L169.319 156.171L169.29 156.144L169.258 156.12L168.648 156.912ZM167.728 156.504L167.491 157.476L167.52 157.483L167.55 157.488L167.728 156.504ZM166.571 156.222L166.808 155.251L166.807 155.25L166.571 156.222ZM165.392 155.851L165.007 156.774L165.018 156.779L165.029 156.783L165.392 155.851ZM164.665 155.399L163.999 156.145L164.007 156.152L164.665 155.399ZM164.235 154.783L163.285 155.096L163.294 155.124L163.305 155.152L164.235 154.783ZM164.116 153.982L165.116 154.007L165.116 153.994V153.982H164.116ZM164.924 152.261L164.332 151.456L164.317 151.467L164.302 151.478L164.924 152.261ZM174.752 151.616L174.741 152.616L174.755 152.616L174.768 152.616L174.752 151.616ZM176.25 151.935L175.827 152.841L175.83 152.843L176.25 151.935ZM177.637 153.507L178.594 153.22L178.592 153.212L178.589 153.204L177.637 153.507ZM177.807 154.442V155.442H178.879L178.805 154.373L177.807 154.442ZM176.561 154.442L175.563 154.507L175.624 155.442H176.561V154.442ZM175.983 153.196L176.676 152.475L176.66 152.46L176.643 152.445L175.983 153.196ZM174.722 152.751L174.699 153.751L174.732 153.751L174.764 153.75L174.722 152.751ZM173.572 153.122L172.97 152.324L172.959 152.332L172.949 152.34L173.572 153.122ZM172.831 154.19L173.779 154.507L173.781 154.501L172.831 154.19ZM172.578 155.851L173.578 155.877L173.579 155.854L173.578 155.83L172.578 155.851ZM172.838 157.439L171.899 157.782L171.901 157.788L172.838 157.439ZM173.587 158.44L172.988 159.24L172.998 159.248L173.009 159.256L173.587 158.44ZM174.752 158.796V157.796H174.74L174.728 157.796L174.752 158.796ZM176.65 156.927V155.927H175.808L175.665 156.757L176.65 156.927ZM177.889 156.927L178.887 156.991L178.955 155.927H177.889V156.927ZM177.407 158.559L178.273 159.058L178.279 159.047L177.407 158.559ZM176.324 159.582L176.767 160.478L176.773 160.475L176.324 159.582ZM174.722 159.938L174.744 158.938L174.72 158.938L174.696 158.939L174.722 159.938ZM172.897 159.449L172.345 160.282L172.36 160.292L172.374 160.301L172.897 159.449ZM171.703 158.025L170.785 158.42L170.786 158.423L171.703 158.025ZM171.28 155.851L172.28 155.873L172.28 155.862V155.851L171.28 155.851ZM171.518 154.123L172.472 154.423L172.475 154.413L172.478 154.402L171.518 154.123ZM172.222 152.773L173.001 153.401L173.006 153.394L172.222 152.773ZM173.335 151.905L172.924 150.994L172.923 150.994L173.335 151.905ZM179.224 151.839V150.839H178.225L178.224 151.838L179.224 151.839ZM180.455 151.839H181.455V150.839H180.455V151.839ZM180.455 159.597V160.597H181.455V159.597H180.455ZM179.216 159.597L178.216 159.596L178.215 160.597H179.216V159.597ZM189.926 151.839V150.839H188.926V151.839H189.926ZM191.157 151.839H192.157V150.839H191.157V151.839ZM191.157 159.597V160.597H192.157V159.597H191.157ZM189.926 159.597H188.926V160.597H189.926V159.597ZM149.831 160.954L148.898 160.596L148.897 160.598L149.831 160.954ZM146.427 173.638L145.448 173.436L144.704 177.045L147.17 174.307L146.427 173.638ZM151.493 165.85L150.582 165.438L150.58 165.441L151.493 165.85ZM153.436 158.44L152.437 158.399L152.436 158.419V158.44H153.436ZM153.169 156.979L154.089 156.587L154.077 156.559L154.063 156.532L153.169 156.979ZM187.048 169.751V170.751H187.066L187.083 170.751L187.048 169.751ZM182.383 173.927L181.499 173.46L181.497 173.463L182.383 173.927ZM180.841 183.777L181.646 183.184L181.634 183.168L181.623 183.154L180.841 183.777ZM182.495 184.6V183.6L182.483 183.6L182.495 184.6ZM187.13 180.41L186.243 179.948L186.242 179.95L187.13 180.41ZM189.31 172.673L188.312 172.616L188.31 172.645V172.673H189.31ZM188.695 170.523L189.512 169.945L189.499 169.927L189.485 169.91L188.695 170.523ZM162.833 172.273L163.691 172.787L163.693 172.782L162.833 172.273ZM161.35 178.696H160.35V180.016L161.62 179.659L161.35 178.696ZM180.689 106.009C166.239 106.274 150.639 112.887 138.244 125.29L139.658 126.704C151.724 114.631 166.843 108.263 180.725 108.009L180.689 106.009ZM138.244 125.29C127.122 136.413 123.226 152.53 123 166.688C122.887 173.78 123.694 180.429 125.002 185.787C125.656 188.466 126.439 190.837 127.304 192.788C128.163 194.725 129.128 196.307 130.175 197.353L131.589 195.939C130.79 195.14 129.945 193.81 129.133 191.977C128.326 190.159 127.578 187.905 126.945 185.312C125.679 180.128 124.889 173.65 125 166.72C125.221 152.831 129.049 137.314 139.658 126.704L138.244 125.29ZM130.175 197.353C131.063 198.24 132.534 199.073 134.358 199.827C136.208 200.592 138.514 201.312 141.154 201.931C146.437 203.171 153.122 204.023 160.298 204C174.615 203.954 191.102 200.423 202.24 189.283L200.826 187.869C190.227 198.469 174.373 201.955 160.291 202C153.268 202.022 146.739 201.188 141.611 199.984C139.047 199.383 136.848 198.692 135.122 197.979C133.37 197.255 132.193 196.542 131.588 195.938L130.175 197.353ZM202.243 189.281C203.778 187.735 205.243 186.122 206.634 184.445L205.095 183.168C203.742 184.799 202.317 186.368 200.824 187.871L202.243 189.281ZM206.854 183.952C207.142 181.995 208.255 179.407 210.335 176.14L208.648 175.066C206.515 178.415 205.225 181.287 204.875 183.661L206.854 183.952ZM209.038 174.712C207.877 175.302 206.632 175.71 205.346 175.922L205.671 177.895C207.159 177.65 208.6 177.178 209.944 176.495L209.038 174.712ZM204.63 176.431C203.624 178.283 202.018 180.32 199.789 182.542L201.201 183.959C203.511 181.656 205.257 179.466 206.387 177.386L204.63 176.431ZM199.807 182.524C197.176 185.015 195.357 186.581 194.303 187.284L195.413 188.948C196.629 188.138 198.563 186.456 201.182 183.977L199.807 182.524ZM194.269 187.308C193.485 187.88 192.548 188.206 191.578 188.244L191.657 190.243C193.023 190.189 194.342 189.73 195.447 188.924L194.269 187.308ZM191.617 188.243C191.118 188.243 190.74 188.135 190.442 187.957C190.145 187.779 189.872 187.497 189.638 187.059C189.152 186.149 188.88 184.648 188.953 182.422L186.954 182.358C186.878 184.701 187.14 186.627 187.874 188.001C188.25 188.705 188.758 189.28 189.415 189.673C190.071 190.066 190.818 190.243 191.617 190.243V188.243ZM187.133 181.819C185.529 184.122 184.071 185.767 182.786 186.804L184.042 188.36C185.532 187.157 187.114 185.345 188.774 182.961L187.133 181.819ZM182.758 186.827C181.742 187.711 180.45 188.212 179.104 188.244L179.151 190.243C180.963 190.2 182.703 189.526 184.07 188.337L182.758 186.827ZM179.127 188.243C178.056 188.243 177.104 187.77 176.251 186.622L174.646 187.815C175.81 189.382 177.321 190.243 179.127 190.243V188.243ZM176.257 186.629C175.557 185.671 175.128 184.542 175.013 183.361L173.022 183.555C173.172 185.092 173.731 186.56 174.641 187.808L176.257 186.629ZM173.305 182.756C171.738 184.346 169.992 185.749 168.101 186.935L169.164 188.629C171.186 187.36 173.054 185.86 174.73 184.16L173.305 182.756ZM168.125 186.921C166.625 187.805 164.977 188.243 163.144 188.243V190.243C165.316 190.243 167.318 189.718 169.14 188.644L168.125 186.921ZM163.144 188.243C161.153 188.243 159.625 187.616 158.474 186.415L157.03 187.799C158.609 189.447 160.686 190.243 163.144 190.243V188.243ZM158.478 186.419C157.602 185.496 157.029 184.327 156.835 183.068L154.858 183.373C155.114 185.034 155.871 186.576 157.027 187.795L158.478 186.419ZM154.846 183.221V183.25H156.846V183.221H154.846ZM155.169 182.514C152.972 184.536 151.074 185.996 149.486 186.917L150.489 188.647C152.252 187.625 154.271 186.059 156.523 183.986L155.169 182.514ZM149.456 186.935C148.161 187.747 146.672 188.198 145.144 188.244L145.203 190.243C147.087 190.187 148.921 189.63 150.518 188.63L149.456 186.935ZM145.148 188.244C144.489 188.261 143.837 188.121 143.243 187.835L142.375 189.637C143.255 190.061 144.224 190.269 145.2 190.243L145.148 188.244ZM143.243 187.835C142.65 187.549 142.134 187.126 141.737 186.601L140.141 187.807C140.73 188.586 141.496 189.213 142.375 189.637L143.243 187.835ZM141.723 186.583C140.826 185.452 140.322 183.861 140.322 181.722H138.322C138.322 184.167 138.9 186.241 140.155 187.825L141.723 186.583ZM140.322 181.722C140.322 178.417 141.043 174.398 142.517 169.631L140.606 169.04C139.099 173.916 138.322 178.145 138.322 181.722H140.322ZM142.517 169.631C143.992 164.862 145.779 160.47 147.883 156.473L146.113 155.541C143.945 159.659 142.113 164.167 140.606 169.04L142.517 169.631ZM147.346 156.945L153.591 154.631L152.896 152.755L146.651 155.069L147.346 156.945ZM153.595 154.629C153.647 154.61 153.7 154.598 153.755 154.594L153.621 152.599C153.371 152.615 153.125 152.669 152.891 152.757L153.595 154.629ZM153.688 154.596C153.677 154.596 153.662 154.594 153.649 154.589C153.638 154.584 153.644 154.584 153.666 154.604C153.718 154.65 153.82 154.772 153.937 155.038L155.768 154.232C155.41 153.421 154.762 152.596 153.688 152.596V154.596ZM153.931 155.023C154.157 155.561 154.305 156.35 154.305 157.453H156.305C156.305 156.198 156.141 155.118 155.774 154.247L153.931 155.023ZM154.305 157.453C154.305 160.639 153.572 163.729 152.094 166.728L153.888 167.612C155.495 164.35 156.305 160.958 156.305 157.453H154.305ZM152.093 166.73C150.613 169.747 148.268 173.013 145.032 176.52L146.502 177.876C149.822 174.278 152.298 170.853 153.889 167.61L152.093 166.73ZM144.77 177.12C144.637 178.823 144.567 180.031 144.567 180.714H146.567C146.567 180.12 146.63 178.985 146.764 177.276L144.77 177.12ZM144.567 180.714C144.567 182.258 144.853 183.589 145.503 184.637L147.203 183.584C146.814 182.957 146.567 182.032 146.567 180.714H144.567ZM145.506 184.643C146.187 185.726 147.182 186.364 148.444 186.364V184.364C147.971 184.364 147.572 184.171 147.2 183.579L145.506 184.643ZM148.484 186.363C149.695 186.315 150.866 185.917 151.856 185.216L150.7 183.584C150.026 184.061 149.229 184.332 148.405 184.365L148.484 186.363ZM151.815 185.244C152.892 184.558 154.451 183.183 156.442 181.236L155.043 179.806C153.044 181.761 151.621 182.996 150.741 183.556L151.815 185.244ZM156.74 180.588C156.933 177.717 158.019 175.101 160.076 172.701L158.558 171.399C156.24 174.103 154.968 177.123 154.745 180.454L156.74 180.588ZM160.078 172.699C162.344 170.042 164.762 168.83 167.327 168.83V166.83C164.033 166.83 161.097 168.421 158.556 171.402L160.078 172.699ZM167.327 168.83C168.676 168.83 169.643 169.18 170.341 169.777L171.641 168.257C170.5 167.281 169.035 166.83 167.327 166.83V168.83ZM170.347 169.781C170.68 170.062 170.945 170.415 171.122 170.812L172.949 169.998C172.648 169.324 172.2 168.728 171.636 168.252L170.347 169.781ZM171.122 170.812C171.3 171.21 171.385 171.643 171.371 172.079L173.37 172.141C173.393 171.404 173.249 170.671 172.949 169.998L171.122 170.812ZM171.371 172.11C171.371 173.399 170.705 174.671 169.06 175.928C167.397 177.197 164.826 178.371 161.269 179.413L161.831 181.332C165.49 180.26 168.329 179.002 170.273 177.517C172.234 176.02 173.371 174.218 173.371 172.11H171.371ZM160.57 180.573C160.922 182.295 161.587 183.71 162.645 184.696C163.72 185.698 165.102 186.164 166.69 186.164V184.164C165.511 184.164 164.649 183.829 164.009 183.233C163.352 182.621 162.83 181.64 162.529 180.172L160.57 180.573ZM166.691 186.164C167.964 186.162 169.213 185.811 170.301 185.151L169.264 183.441C168.487 183.912 167.596 184.162 166.688 184.164L166.691 186.164ZM170.29 185.158C171.369 184.522 172.874 183.198 174.754 181.317L173.34 179.903C171.453 181.79 170.109 182.943 169.275 183.435L170.29 185.158ZM175.039 180.736C175.258 179.014 175.846 177.344 176.823 175.728L175.112 174.692C173.999 176.533 173.311 178.468 173.055 180.484L175.039 180.736ZM176.823 175.729C178.098 173.627 179.73 171.928 181.714 170.633L180.62 168.958C178.377 170.423 176.538 172.343 175.113 174.692L176.823 175.729ZM181.711 170.634C183.747 169.313 185.423 168.734 186.774 168.734V166.734C184.876 166.734 182.815 167.534 180.622 168.957L181.711 170.634ZM186.774 168.734C187.641 168.734 188.313 168.931 188.838 169.276C189.363 169.621 189.812 170.159 190.158 170.957L191.993 170.162C191.523 169.076 190.845 168.201 189.935 167.604C189.025 167.007 187.954 166.734 186.774 166.734V168.734ZM191.559 171.435L196.58 168.661L195.613 166.91L190.592 169.684L191.559 171.435ZM196.097 168.786H197.476V166.786H196.097V168.786ZM196.519 167.498L194.353 174.7L196.268 175.276L198.434 168.074L196.519 167.498ZM194.355 174.694C193.249 178.292 192.634 180.918 192.634 182.434H194.634C194.634 181.266 195.147 178.922 196.266 175.281L194.355 174.694ZM192.634 182.434C192.634 183.226 192.768 183.999 193.192 184.598C193.66 185.26 194.367 185.548 195.133 185.548V183.548C194.999 183.548 194.931 183.525 194.901 183.511C194.877 183.5 194.854 183.484 194.824 183.442C194.749 183.336 194.634 183.052 194.634 182.434H192.634ZM195.133 185.548C196.121 185.548 197.055 185.037 197.909 184.281L196.584 182.783C195.895 183.393 195.419 183.548 195.133 183.548V185.548ZM197.909 184.281C198.704 183.578 199.804 182.522 201.196 181.122L199.778 179.712C198.397 181.101 197.331 182.122 196.584 182.783L197.909 184.281ZM199.487 180.417V180.424H201.487V180.417H199.487ZM201.222 181.102C202.317 179.917 203.319 178.654 204.222 177.322L202.567 176.199C201.72 177.448 200.78 178.633 199.752 179.746L201.222 181.102ZM203.799 175.846C203.203 175.582 202.829 175.284 202.606 174.991C202.393 174.709 202.281 174.385 202.281 173.979H200.281C200.281 174.797 200.521 175.551 201.013 176.199C201.494 176.834 202.178 177.316 202.99 177.675L203.799 175.846ZM202.281 173.979C202.281 172.949 202.633 171.776 203.429 170.452L201.714 169.421C200.79 170.96 200.281 172.487 200.281 173.979H202.281ZM203.43 170.45C204.132 169.275 205.005 168.786 206.124 168.786V166.786C204.217 166.786 202.731 167.72 201.713 169.423L203.43 170.45ZM206.124 168.786C206.602 168.786 206.777 168.906 206.843 168.974C206.914 169.046 207.038 169.242 207.038 169.751H209.038C209.038 168.948 208.843 168.16 208.275 167.578C207.704 166.991 206.922 166.786 206.124 166.786V168.786ZM207.038 169.751C207.038 170.59 206.724 171.923 205.999 173.814L207.866 174.53C208.609 172.594 209.038 170.975 209.038 169.751H207.038ZM207.041 175.166C210.255 174.816 212.853 172.377 214.945 168.391L213.175 167.462C211.202 171.219 209.054 172.935 206.824 173.178L207.041 175.166ZM214.104 168.926L215.795 168.851L215.707 166.853L214.016 166.927L214.104 168.926ZM216.668 168.251C224.635 149.908 222.97 129.874 210.302 117.213L208.888 118.627C220.814 130.546 222.575 149.63 214.834 167.454L216.668 168.251ZM210.303 117.213C202.524 109.426 191.944 105.79 180.688 106.009L180.727 108.009C191.527 107.798 201.552 111.283 208.888 118.627L210.303 117.213ZM214.835 167.451C212.351 173.124 209.072 178.415 205.098 183.165L206.631 184.448C210.728 179.553 214.107 174.1 216.667 168.253L214.835 167.451ZM204.876 183.658C204.815 184.064 204.781 184.473 204.776 184.883L206.775 184.911C206.78 184.591 206.806 184.272 206.853 183.955L204.876 183.658ZM204.776 184.897C204.776 186.341 205.185 187.619 206.039 188.667L207.589 187.402C207.064 186.759 206.776 185.945 206.776 184.897L204.776 184.897ZM206.038 188.666C206.892 189.714 208.012 190.295 209.336 190.295V188.295C208.671 188.295 208.101 188.031 207.589 187.403L206.038 188.666ZM209.336 190.295C210.71 190.295 212.226 189.692 213.839 188.678C215.471 187.653 217.303 186.142 219.332 184.176L217.94 182.74C215.964 184.654 214.244 186.061 212.775 186.985C211.288 187.92 210.157 188.295 209.336 188.295V190.295ZM217.636 183.433C217.63 183.695 217.614 184.037 217.614 184.356H219.614C219.614 184.066 219.628 183.814 219.636 183.483L217.636 183.433ZM217.614 184.356C217.614 185.481 217.706 187.16 217.884 189.376L219.878 189.215C219.7 187.01 219.614 185.396 219.614 184.356H217.614ZM219.109 190.269L224.546 188.993L224.089 187.046L218.652 188.322L219.109 190.269ZM225.317 188.02C225.317 186.542 225.34 185.401 225.39 184.564L223.393 184.444C223.34 185.342 223.317 186.531 223.317 188.02H225.317ZM225.389 184.567C225.461 183.451 225.625 182.207 225.866 180.843L223.896 180.495C223.647 181.906 223.471 183.228 223.394 184.44L225.389 184.567ZM225.865 180.848C225.98 180.216 226.269 179.585 226.778 178.971L225.238 177.695C224.531 178.549 224.079 179.49 223.897 180.49L225.865 180.848ZM226.766 178.985L228.146 177.383L226.63 176.078L225.251 177.68L226.766 178.985ZM228.147 177.382C229.007 176.379 229.919 175.421 230.879 174.512L229.504 173.06C228.494 174.016 227.534 175.024 226.629 176.08L228.147 177.382ZM230.855 174.534C231.303 174.136 231.665 173.844 231.952 173.651L230.834 171.993C230.438 172.259 229.999 172.62 229.528 173.038L230.855 174.534ZM231.968 173.64C232.098 173.548 232.249 173.492 232.408 173.475L232.203 171.486C231.704 171.537 231.227 171.716 230.817 172.004L231.968 173.64ZM232.305 173.481C232.303 173.481 232.254 173.48 232.183 173.45C232.106 173.417 232.034 173.363 231.98 173.295C231.93 173.232 231.916 173.182 231.915 173.176C231.914 173.172 231.921 173.198 231.921 173.267H233.921C233.921 172.899 233.853 172.44 233.552 172.058C233.215 171.63 232.736 171.481 232.305 171.481L232.305 173.481ZM231.921 173.267C231.921 173.356 231.872 173.66 231.677 174.279C231.495 174.86 231.216 175.626 230.835 176.583L232.693 177.323C233.083 176.344 233.382 175.527 233.586 174.878C233.777 174.268 233.921 173.697 233.921 173.267H231.921ZM230.835 176.582C229.393 180.195 228.598 183.035 228.598 184.993H230.598C230.598 183.451 231.257 180.921 232.692 177.324L230.835 176.582ZM228.598 184.993C228.598 186.47 228.99 187.753 229.851 188.748L231.363 187.439C230.889 186.891 230.598 186.112 230.598 184.993H228.598ZM229.851 188.749C230.277 189.241 230.809 189.63 231.406 189.889L232.201 188.054C231.879 187.914 231.592 187.704 231.363 187.439L229.851 188.749ZM231.406 189.889C232.003 190.148 232.651 190.269 233.302 190.243L233.222 188.244C232.872 188.258 232.522 188.193 232.201 188.054L231.406 189.889ZM233.262 190.243C236.418 190.243 239.923 187.957 243.726 183.938L242.274 182.563C238.512 186.539 235.52 188.243 233.262 188.243V190.243ZM244 183.25V180.424H242V183.25H244ZM242.237 179.778C240.916 181.337 239.806 182.472 238.904 183.208C237.951 183.986 237.406 184.171 237.185 184.171V186.171C238.159 186.171 239.182 185.563 240.169 184.757C241.206 183.91 242.407 182.671 243.763 181.071L242.237 179.778ZM237.185 184.171C237.084 184.171 237.041 184.156 237.035 184.153C237.035 184.153 237.046 184.16 237.054 184.169C237.058 184.175 236.976 184.072 236.976 183.688H234.976C234.976 184.291 235.095 184.929 235.502 185.43C235.941 185.971 236.566 186.171 237.185 186.171V184.171ZM236.976 183.688C236.976 183.476 237.056 183.013 237.296 182.216C237.526 181.449 237.877 180.456 238.355 179.23L236.491 178.504C236.004 179.755 235.632 180.802 235.38 181.641C235.137 182.449 234.976 183.158 234.976 183.688H236.976ZM238.354 179.231C239.761 175.631 240.536 172.875 240.536 171.094H238.536C238.536 172.457 237.902 174.893 236.491 178.503L238.354 179.231ZM240.536 171.129C240.575 170.012 240.192 168.922 239.464 168.075L237.948 169.38C238.348 169.845 238.559 170.445 238.537 171.058L240.536 171.129ZM239.468 168.081C239.115 167.665 238.674 167.333 238.177 167.109L237.356 168.932C237.582 169.034 237.783 169.185 237.943 169.375L239.468 168.081ZM238.177 167.109C237.68 166.885 237.139 166.774 236.593 166.786L236.635 168.785C236.883 168.78 237.129 168.83 237.356 168.932L238.177 167.109ZM236.614 166.786C235.087 166.786 233.477 167.492 231.818 168.707L233 170.321C234.5 169.222 235.694 168.786 236.614 168.786V166.786ZM231.818 168.707C230.15 169.929 227.964 172.071 225.264 175.076L226.752 176.413C229.437 173.424 231.508 171.413 233 170.321L231.818 168.707ZM226.988 175.942C227.366 174.076 228.175 171.464 229.43 168.082L227.555 167.386C226.289 170.798 225.437 173.526 225.028 175.546L226.988 175.942ZM228.304 166.752L222.303 167.909L222.682 169.873L228.682 168.716L228.304 166.752ZM221.59 168.462C220.347 171.078 219.336 173.799 218.569 176.592L220.498 177.122C221.234 174.441 222.204 171.831 223.396 169.32L221.59 168.462ZM218.565 176.608C218.257 177.808 218.028 179.034 217.86 180.284L219.842 180.55C220.001 179.367 220.217 178.219 220.502 177.105L218.565 176.608ZM218.143 179.711C217.003 180.857 215.812 181.95 214.574 182.989L215.86 184.521C217.143 183.444 218.378 182.31 219.56 181.123L218.143 179.711ZM214.603 182.965C214.29 183.209 213.905 183.344 213.507 183.348L213.53 185.348C214.364 185.339 215.172 185.056 215.831 184.544L214.603 182.965ZM213.478 183.349C213.391 183.352 213.304 183.335 213.225 183.298L212.373 185.107C212.743 185.281 213.15 185.364 213.559 185.347L213.478 183.349ZM213.225 183.298C213.146 183.26 213.077 183.205 213.024 183.135L211.432 184.345C211.679 184.671 212.002 184.932 212.373 185.107L213.225 183.298ZM213.045 183.163C212.836 182.867 212.733 182.509 212.752 182.147L210.755 182.04C210.711 182.851 210.943 183.653 211.411 184.317L213.045 183.163ZM212.753 182.093C212.753 181.473 212.872 180.724 213.13 179.825L211.208 179.274C210.917 180.288 210.753 181.23 210.753 182.093L212.753 182.093ZM213.129 179.83C213.401 178.898 214 177.121 214.956 174.466L213.075 173.788C212.118 176.444 211.5 178.272 211.209 179.269L213.129 179.83ZM214.956 174.468L217.24 168.171L215.36 167.489L213.075 173.786L214.956 174.468ZM216.259 166.831L215.711 166.853L215.792 168.851L216.34 168.829L216.259 166.831ZM88.1281 145.142C81.5004 145.02 75.238 147.164 70.6333 151.769L72.0475 153.184C76.2094 149.021 81.9176 147.028 88.091 147.142L88.1281 145.142ZM70.6333 151.769C60.0729 162.33 62.4665 181.338 75.3134 194.179L76.7273 192.764C64.3426 180.386 62.5531 162.679 72.0475 153.184L70.6333 151.769ZM75.313 194.178C81.8735 200.743 91.352 203.021 99.6237 203.154C103.773 203.221 107.667 202.749 110.812 201.981C112.385 201.597 113.786 201.135 114.945 200.62C116.091 200.111 117.061 199.525 117.72 198.865L116.305 197.452C115.894 197.864 115.175 198.33 114.134 198.792C113.107 199.248 111.824 199.675 110.338 200.038C107.366 200.764 103.643 201.218 99.6558 201.154C91.6534 201.026 82.7756 198.816 76.7277 192.764L75.313 194.178ZM117.719 198.867C118.294 198.293 118.803 197.377 119.247 196.305C119.702 195.206 120.126 193.845 120.49 192.297C121.217 189.2 121.715 185.287 121.702 181.091C121.676 172.733 119.617 163.031 113.039 156.457L111.626 157.871C117.664 163.906 119.677 172.974 119.702 181.097C119.715 185.141 119.234 188.897 118.543 191.84C118.197 193.312 117.803 194.565 117.399 195.54C116.985 196.541 116.597 197.161 116.306 197.451L117.719 198.867ZM113.04 156.457C105.777 149.194 96.6372 145.304 88.1285 145.142L88.0906 147.142C96.0322 147.292 104.692 150.937 111.625 157.871L113.04 156.457ZM179.224 149.798H180.455V147.798H179.224V149.798ZM179.455 148.798V150.355H181.455V148.798H179.455ZM180.455 149.355H179.216V151.355H180.455V149.355ZM180.216 150.36L180.224 148.802L178.224 148.793L178.216 150.35L180.216 150.36ZM182.391 149.798H183.622V147.798H182.391V149.798ZM182.622 148.798V155.213H184.622V148.798H182.622ZM184.325 155.924L187.737 152.55L186.33 151.128L182.919 154.503L184.325 155.924ZM187.034 152.839H188.48V150.839H187.034V152.839ZM187.775 151.13L185.075 153.815L186.485 155.233L189.185 152.548L187.775 151.13ZM184.932 155.054L188.107 160.127L189.802 159.067L186.628 153.993L184.932 155.054ZM188.954 158.597H187.486V160.597H188.954V158.597ZM188.336 159.07L185.688 154.805L183.989 155.86L186.636 160.124L188.336 159.07ZM184.127 154.629L182.91 155.861L184.333 157.266L185.55 156.035L184.127 154.629ZM182.622 156.563V159.604H184.622V156.563H182.622ZM183.622 158.604H182.391V160.604H183.622V158.604ZM183.391 159.604V148.798H181.391V159.604H183.391ZM189.926 149.798H191.157V147.798H189.926V149.798ZM190.157 148.798V150.355H192.157V148.798H190.157ZM191.157 149.355H189.926V151.355H191.157V149.355ZM190.926 150.355V148.798H188.926V150.355H190.926ZM193.494 150.702H194.725V148.702H193.494V150.702ZM193.725 149.702V151.839H195.725V149.702H193.725ZM194.725 152.839H196V150.839H194.725V152.839ZM195 151.839V152.84H197V151.839H195ZM196 151.84H194.725V153.84H196V151.84ZM193.725 152.84V158.158H195.725V152.84H193.725ZM193.725 158.158C193.725 158.341 193.739 158.549 193.792 158.755C193.846 158.961 193.955 159.227 194.193 159.447L195.553 157.982C195.687 158.105 195.722 158.231 195.728 158.251C195.733 158.272 195.725 158.25 195.725 158.158H193.725ZM194.138 159.393C194.354 159.626 194.617 159.736 194.815 159.789C195.019 159.845 195.229 159.863 195.422 159.863V157.863C195.341 157.863 195.32 157.854 195.341 157.86C195.353 157.863 195.387 157.873 195.432 157.898C195.478 157.923 195.543 157.966 195.608 158.036L194.138 159.393ZM195.378 159.862C195.688 159.875 195.998 159.836 196.295 159.744L195.705 157.833C195.628 157.857 195.547 157.867 195.466 157.864L195.378 159.862ZM195 158.789V159.834H197V158.789H195ZM195.814 158.852C195.537 158.905 195.256 158.933 194.974 158.938L195.009 160.938C195.404 160.931 195.799 160.891 196.187 160.817L195.814 158.852ZM194.925 158.94C194.761 158.951 194.598 158.905 194.465 158.808L193.294 160.43C193.805 160.799 194.429 160.978 195.059 160.936L194.925 158.94ZM194.531 158.861C194.517 158.849 194.507 158.835 194.5 158.819L192.658 159.598C192.785 159.898 192.98 160.165 193.228 160.378L194.531 158.861ZM194.5 158.819C194.494 158.803 194.491 158.786 194.492 158.768L192.495 158.646C192.475 158.971 192.531 159.297 192.658 159.598L194.5 158.819ZM194.494 158.707V152.847H192.494V158.707H194.494ZM193.494 151.847H192.448V153.847H193.494V151.847ZM193.448 152.847V151.839H191.448V152.847H193.448ZM192.448 152.839H193.494V150.839H192.448V152.839ZM194.494 151.839V149.702H192.494V151.839H194.494ZM167.075 152.616C167.584 152.616 167.943 152.692 168.195 152.808L169.026 150.988C168.433 150.718 167.768 150.616 167.075 150.616V152.616ZM168.222 152.82C168.46 152.919 168.613 153.058 168.722 153.236L170.428 152.192C170.092 151.643 169.607 151.232 168.999 150.976L168.222 152.82ZM168.722 153.236C168.834 153.42 168.908 153.656 168.908 153.997H170.908C170.908 153.344 170.76 152.735 170.428 152.192L168.722 153.236ZM169.908 152.997H168.603V154.997H169.908V152.997ZM169.602 153.943C169.568 153.326 169.344 152.718 168.812 152.29C168.309 151.885 167.674 151.758 167.06 151.758V153.758C167.433 153.758 167.547 153.839 167.558 153.848C167.56 153.849 167.563 153.851 167.57 153.867C167.579 153.887 167.599 153.942 167.605 154.051L169.602 153.943ZM167.116 151.76C166.488 151.725 165.863 151.881 165.325 152.208L166.363 153.917C166.556 153.8 166.779 153.744 167.004 153.757L167.116 151.76ZM165.293 152.228C165.007 152.417 164.774 152.677 164.618 152.982L166.398 153.894C166.397 153.895 166.396 153.896 166.396 153.897L165.293 152.228ZM164.618 152.982C164.462 153.287 164.386 153.627 164.4 153.969L166.398 153.891C166.398 153.892 166.398 153.893 166.398 153.894L164.618 152.982ZM164.399 153.93C164.399 154.519 164.669 155.028 165.124 155.377L166.341 153.789C166.334 153.784 166.354 153.798 166.374 153.837C166.394 153.877 166.399 153.913 166.399 153.93L164.399 153.93ZM165.108 155.364C165.511 155.686 166.063 155.875 166.622 156.003L167.068 154.053C166.59 153.944 166.4 153.836 166.358 153.802L165.108 155.364ZM166.608 156L167.795 156.289L168.269 154.346L167.082 154.056L166.608 156ZM167.861 156.303C168.298 156.379 168.707 156.57 169.046 156.858L170.341 155.334C169.731 154.815 168.993 154.469 168.203 154.332L167.861 156.303ZM168.994 156.811C169.111 156.926 169.212 157.107 169.212 157.476H171.212C171.212 156.688 170.972 155.949 170.393 155.381L168.994 156.811ZM169.213 157.496C169.218 157.751 169.144 158 169 158.211L170.653 159.337C171.031 158.783 171.226 158.125 171.212 157.455L169.213 157.496ZM169.014 158.191C168.849 158.422 168.618 158.598 168.352 158.696L169.047 160.572C169.687 160.334 170.242 159.911 170.639 159.357L169.014 158.191ZM168.331 158.704C167.921 158.867 167.483 158.946 167.041 158.938L167.005 160.938C167.711 160.951 168.412 160.824 169.068 160.564L168.331 158.704ZM167.023 158.938C166.139 158.938 165.637 158.74 165.375 158.52L164.088 160.051C164.85 160.691 165.89 160.938 167.023 160.938V158.938ZM165.381 158.525C165.149 158.327 164.946 157.967 164.923 157.257L162.924 157.324C162.959 158.393 163.29 159.369 164.082 160.045L165.381 158.525ZM163.923 158.29H165.228V156.29H163.923V158.29ZM164.234 157.398C164.268 157.712 164.325 158.01 164.416 158.259L166.293 157.568C166.281 157.535 166.248 157.417 166.223 157.183L164.234 157.398ZM164.422 158.273C164.526 158.543 164.681 158.789 164.879 158.999L166.335 157.628C166.314 157.607 166.298 157.581 166.287 157.553L164.422 158.273ZM164.908 159.029C165.493 159.601 166.298 159.796 167.12 159.796V157.796C166.577 157.796 166.373 157.665 166.306 157.599L164.908 159.029ZM167.07 159.795C167.731 159.828 168.388 159.661 168.953 159.316L167.911 157.609C167.689 157.745 167.43 157.81 167.17 157.797L167.07 159.795ZM168.95 159.318C169.25 159.136 169.497 158.881 169.668 158.577L167.925 157.595C167.923 157.6 167.919 157.604 167.914 157.607L168.95 159.318ZM169.668 158.577C169.84 158.272 169.93 157.928 169.929 157.579L167.929 157.58C167.929 157.586 167.928 157.591 167.925 157.595L169.668 158.577ZM169.929 157.615C169.938 157.344 169.889 157.075 169.783 156.826L167.941 157.604C167.933 157.585 167.929 157.565 167.93 157.544L169.929 157.615ZM169.783 156.826C169.678 156.576 169.52 156.353 169.319 156.171L167.976 157.653C167.961 157.639 167.949 157.622 167.941 157.604L169.783 156.826ZM169.258 156.12C168.861 155.815 168.398 155.609 167.906 155.52L167.55 157.488C167.727 157.52 167.895 157.594 168.038 157.704L169.258 156.12ZM167.965 155.532L166.808 155.251L166.334 157.194L167.491 157.476L167.965 155.532ZM166.807 155.25C166.449 155.164 166.098 155.053 165.755 154.92L165.029 156.783C165.454 156.949 165.891 157.086 166.335 157.194L166.807 155.25ZM165.777 154.928C165.611 154.859 165.458 154.764 165.323 154.646L164.007 156.152C164.304 156.412 164.642 156.622 165.007 156.774L165.777 154.928ZM165.331 154.653C165.257 154.587 165.2 154.506 165.164 154.414L163.305 155.152C163.456 155.532 163.694 155.872 163.999 156.145L165.331 154.653ZM165.184 154.47C165.135 154.321 165.112 154.164 165.116 154.007L163.116 153.958C163.107 154.344 163.164 154.729 163.285 155.096L165.184 154.47ZM165.116 153.982C165.116 153.557 165.258 153.274 165.546 153.044L164.302 151.478C163.508 152.109 163.116 152.983 163.116 153.982H165.116ZM165.517 153.067C165.952 152.747 166.484 152.587 167.024 152.615L167.127 150.617C166.126 150.566 165.138 150.862 164.332 151.456L165.517 153.067ZM174.768 152.616C175.134 152.61 175.496 152.687 175.827 152.841L176.672 151.029C176.066 150.746 175.404 150.605 174.735 150.616L174.768 152.616ZM175.83 152.843C176.031 152.936 176.211 153.07 176.358 153.237L177.858 151.914C177.528 151.539 177.123 151.237 176.67 151.028L175.83 152.843ZM176.358 153.237C176.506 153.404 176.616 153.599 176.684 153.811L178.589 153.204C178.438 152.728 178.189 152.289 177.858 151.914L176.358 153.237ZM176.679 153.795C176.749 154.028 176.793 154.268 176.81 154.511L178.805 154.373C178.778 153.982 178.707 153.595 178.594 153.22L176.679 153.795ZM177.807 153.442H176.561V155.442H177.807V153.442ZM177.559 154.378C177.512 153.655 177.197 152.977 176.676 152.475L175.289 153.917C175.451 154.072 175.549 154.283 175.563 154.507L177.559 154.378ZM176.643 152.445C176.102 151.97 175.399 151.721 174.679 151.752L174.764 153.75C174.969 153.741 175.169 153.812 175.323 153.947L176.643 152.445ZM174.744 151.751C174.105 151.737 173.48 151.939 172.97 152.324L174.175 153.92C174.326 153.806 174.51 153.746 174.699 153.751L174.744 151.751ZM172.949 152.34C172.45 152.738 172.079 153.273 171.88 153.879L173.781 154.501C173.858 154.266 174.002 154.058 174.196 153.904L172.949 152.34ZM171.882 153.873C171.667 154.517 171.564 155.194 171.579 155.873L173.578 155.83C173.569 155.381 173.637 154.933 173.779 154.507L171.882 153.873ZM171.579 155.825C171.561 156.492 171.67 157.155 171.899 157.782L173.777 157.096C173.635 156.706 173.567 156.292 173.578 155.877L171.579 155.825ZM171.901 157.788C172.116 158.366 172.494 158.87 172.988 159.24L174.186 157.639C173.999 157.499 173.857 157.309 173.775 157.09L171.901 157.788ZM173.009 159.256C173.524 159.621 174.143 159.81 174.775 159.796L174.728 157.796C174.527 157.801 174.33 157.741 174.165 157.624L173.009 159.256ZM174.752 159.796C175.489 159.796 176.18 159.57 176.717 159.041C177.233 158.532 177.507 157.841 177.636 157.097L175.665 156.757C175.578 157.259 175.429 157.502 175.313 157.616C175.218 157.71 175.068 157.796 174.752 157.796V159.796ZM176.65 157.927H177.889V155.927H176.65V157.927ZM176.891 156.862C176.863 157.287 176.742 157.699 176.534 158.07L178.279 159.047C178.633 158.416 178.84 157.713 178.887 156.991L176.891 156.862ZM176.54 158.06C176.384 158.33 176.153 158.549 175.874 158.689L176.773 160.475C177.401 160.16 177.923 159.667 178.273 159.058L176.54 158.06ZM175.88 158.686C175.527 158.86 175.138 158.947 174.744 158.938L174.7 160.938C175.416 160.954 176.125 160.796 176.767 160.478L175.88 158.686ZM174.696 158.939C174.246 158.95 173.803 158.831 173.42 158.596L172.374 160.301C173.087 160.738 173.912 160.96 174.748 160.938L174.696 158.939ZM173.449 158.615C173.083 158.372 172.795 158.029 172.62 157.626L170.786 158.423C171.115 159.18 171.657 159.826 172.345 160.282L173.449 158.615ZM172.622 157.63C172.384 157.075 172.267 156.476 172.28 155.873L170.281 155.83C170.261 156.719 170.433 157.602 170.785 158.42L172.622 157.63ZM172.28 155.851C172.28 155.297 172.346 154.823 172.472 154.423L170.564 153.823C170.363 154.461 170.28 155.145 170.28 155.851L172.28 155.851ZM172.478 154.402C172.584 154.037 172.762 153.697 173.001 153.401L171.444 152.145C171.039 152.647 170.738 153.224 170.558 153.844L172.478 154.402ZM173.006 153.394C173.203 153.145 173.457 152.947 173.746 152.817L172.923 150.994C172.343 151.256 171.834 151.653 171.439 152.152L173.006 153.394ZM173.746 152.817C174.049 152.68 174.388 152.612 174.741 152.616L174.762 150.616C174.139 150.61 173.511 150.729 172.924 150.994L173.746 152.817ZM179.224 152.839H180.455V150.839H179.224V152.839ZM179.455 151.839V159.597H181.455V151.839H179.455ZM180.455 158.597H179.216V160.597H180.455V158.597ZM180.216 159.598L180.224 151.84L178.224 151.838L178.216 159.596L180.216 159.598ZM189.926 152.839H191.157V150.839H189.926V152.839ZM190.157 151.839V159.597H192.157V151.839H190.157ZM191.157 158.597H189.926V160.597H191.157V158.597ZM190.926 159.597V151.839H188.926V159.597H190.926ZM152.472 155.422C151.908 155.422 151.495 155.764 151.257 156.007C150.99 156.28 150.738 156.643 150.499 157.052C150.017 157.878 149.483 159.07 148.898 160.596L150.765 161.312C151.337 159.82 151.826 158.746 152.226 158.061C152.429 157.714 152.584 157.51 152.686 157.405C152.818 157.27 152.738 157.422 152.472 157.422V155.422ZM148.897 160.598C147.719 163.69 146.572 167.978 145.448 173.436L147.407 173.839C148.522 168.424 149.644 164.256 150.766 161.31L148.897 160.598ZM147.17 174.307C149.324 171.915 151.072 169.231 152.405 166.259L150.58 165.441C149.332 168.224 147.698 170.732 145.684 172.969L147.17 174.307ZM152.404 166.262C153.733 163.322 154.436 160.705 154.436 158.44H152.436C152.436 160.313 151.848 162.637 150.582 165.438L152.404 166.262ZM154.435 158.481C154.462 157.832 154.344 157.185 154.089 156.587L152.249 157.371C152.387 157.695 152.451 158.046 152.437 158.399L154.435 158.481ZM154.063 156.532C153.805 156.015 153.308 155.422 152.479 155.422V157.422C152.433 157.422 152.381 157.414 152.332 157.396C152.283 157.378 152.249 157.355 152.23 157.34C152.197 157.314 152.222 157.32 152.274 157.426L154.063 156.532ZM152.479 155.422H152.472V157.422H152.479V155.422ZM187.048 168.751C184.793 168.751 182.984 170.648 181.499 173.46L183.268 174.394C184.72 171.643 186.025 170.751 187.048 170.751V168.751ZM181.497 173.463C179.987 176.347 179.188 179.074 179.188 181.626H181.188C181.188 179.49 181.858 177.085 183.269 174.391L181.497 173.463ZM179.188 181.626C179.188 182.679 179.445 183.631 180.059 184.4L181.623 183.154C181.361 182.826 181.188 182.353 181.188 181.626H179.188ZM180.036 184.37C180.32 184.757 180.693 185.07 181.123 185.284L182.014 183.493C181.868 183.421 181.742 183.315 181.646 183.184L180.036 184.37ZM181.123 185.284C181.552 185.497 182.027 185.606 182.506 185.6L182.483 183.6C182.32 183.602 182.159 183.566 182.014 183.493L181.123 185.284ZM182.495 185.6C184.754 185.6 186.555 183.699 188.018 180.869L186.242 179.95C184.813 182.713 183.514 183.6 182.495 183.6V185.6ZM188.017 180.871C189.521 177.978 190.31 175.237 190.31 172.673H188.31C188.31 174.827 187.646 177.249 186.243 179.948L188.017 180.871ZM190.309 172.731C190.366 171.739 190.085 170.757 189.512 169.945L187.878 171.1C188.19 171.541 188.343 172.076 188.312 172.616L190.309 172.731ZM189.485 169.91C189.194 169.535 188.819 169.234 188.389 169.033L187.54 170.844C187.683 170.911 187.808 171.011 187.905 171.135L189.485 169.91ZM188.389 169.033C187.959 168.831 187.488 168.735 187.013 168.752L187.083 170.751C187.241 170.745 187.398 170.777 187.54 170.844L188.389 169.033ZM165.926 168.803C164.285 168.803 162.995 170.036 161.972 171.764L163.693 172.782C164.629 171.201 165.4 170.803 165.926 170.803V168.803ZM161.975 171.759C160.868 173.608 160.35 175.938 160.35 178.696H162.35C162.35 176.173 162.825 174.232 163.691 172.787L161.975 171.759ZM161.62 179.659C163.818 179.041 165.576 178.135 166.792 176.874C168.031 175.589 168.646 173.997 168.646 172.162H166.646C166.646 173.509 166.212 174.594 165.352 175.486C164.469 176.402 163.078 177.172 161.079 177.734L161.62 179.659ZM168.646 172.162C168.646 171.284 168.492 170.445 168.025 169.804C167.515 169.104 166.754 168.803 165.926 168.803V170.803C166.246 170.803 166.346 170.896 166.409 170.982C166.515 171.127 166.646 171.467 166.646 172.162H168.646Z" fill="#D19600" mask="url(#path-3-inside-1_174_52)"/>
<defs>
<filter id="filter0_i_174_52" x="0" y="0" width="309" height="309" filterUnits="userSpaceOnUse" color-interpolation-filters="sRGB">
<feFlood flood-opacity="0" result="BackgroundImageFix"/>
<feBlend mode="normal" in="SourceGraphic" in2="BackgroundImageFix" result="shape"/>
<feColorMatrix in="SourceAlpha" type="matrix" values="0 0 0 0 0 0 0 0 0 0 0 0 0 0 0 0 0 0 127 0" result="hardAlpha"/>
<feMorphology radius="20" operator="erode" in="SourceAlpha" result="effect1_innerShadow_174_52"/>
<feOffset/>
<feGaussianBlur stdDeviation="10"/>
<feComposite in2="hardAlpha" operator="arithmetic" k2="-1" k3="1"/>
<feColorMatrix type="matrix" values="0 0 0 0 1 0 0 0 0 0.72 0 0 0 0 0 0 0 0 0.31 0"/>
<feBlend mode="normal" in2="shape" result="effect1_innerShadow_174_52"/>
</filter>
</defs>
</svg>
